A Walk To Remember [2002].mp4


Format                           : MPEG-4

Format profile                   : Base Media / Version 2

Codec ID                         : mp42

File size                        : 741 MiB

Duration                         : 1h 41mn

Overall bit rate                 : 1 020 Kbps



Video
ID                               : 1

Format                           : AVC

Format/Info                      : Advanced Video Codec

Format profile                   : Main@L3.1

Format settings, CABAC           : Yes

Format settings, ReFrames        : 4 frames

Codec ID                         : avc1

Codec ID/Info                    : Advanced Video Coding

Duration                         : 1h 41mn

Bit rate mode                    : Variable

Bit rate                         : 950 Kbps

Width                            : 1 280 pixels

Height                           : 720 pixels

Display aspect ratio             : 16:9

Frame rate mode                  : Variable

Frame rate                       : 23.976 fps

Minimum frame rate               : 18.868 fps

Maximum frame rate               : 24.570 fps

Color space                      : YUV

Chroma subsampling               : 4:2:0

Bit depth                        : 8 bits

Scan type                        : Progressive

Bits/(Pixel*Frame)               : 0.043

Stream size                      : 690 MiB (93%)

Writing library                  : x264 core 120




Audio
ID                               : 2

Format                           : AAC

Format/Info                      : Advanced Audio Codec

Format profile                   : LC

Codec ID                         : 40

Duration                         : 1h 41mn

Bit rate mode                    : Variable

Bit rate                         : 64.2 Kbps

Maximum bit rate                 : 75.2 Kbps

Channel(s)                       : 2 channels

Channel positions                : Front: L R

Sampling rate                    : 48.0 KHz

Compression mode                 : Lossy

Stream size                      : 46.6 MiB (6%)

Language                         : English


Subtitles

SRT file included.

Please seed and comment.......